<mxfile host="app.diagrams.net" modified="2023-06-03T18:48:45.710Z" agent="Mozilla/5.0 (Windows NT 10.0; Win64; x64) AppleWebKit/537.36 (KHTML, like Gecko) Chrome/113.0.0.0 Safari/537.36" etag="5s2aMzOZYZ9gMbvV3i1x" version="21.2.9" type="device">
  <diagram name="Page-1" id="GxCVYlf3Cbxyx8mthD65">
    <mxGraphModel dx="842" dy="451" grid="1" gridSize="10" guides="1" tooltips="1" connect="1" arrows="1" fold="1" page="1" pageScale="1" pageWidth="1654" pageHeight="1169" math="0" shadow="0">
      <root>
        <mxCell id="0" />
        <mxCell id="1" parent="0" />
        <mxCell id="Slf8df3cpOaLXyys4e7j-1" value="" style="ellipse;whiteSpace=wrap;html=1;fillColor=#dae8fc;strokeColor=#6c8ebf;" vertex="1" parent="1">
          <mxGeometry x="400" y="200" width="400" height="230" as="geometry" />
        </mxCell>
        <mxCell id="Slf8df3cpOaLXyys4e7j-3" value="" style="ellipse;whiteSpace=wrap;html=1;fillColor=#e1d5e7;strokeColor=#9673a6;" vertex="1" parent="1">
          <mxGeometry x="465" y="240" width="270" height="150" as="geometry" />
        </mxCell>
        <mxCell id="Slf8df3cpOaLXyys4e7j-4" value="" style="ellipse;whiteSpace=wrap;html=1;fillColor=#f8cecc;strokeColor=#b85450;" vertex="1" parent="1">
          <mxGeometry x="517.5" y="275" width="165" height="80" as="geometry" />
        </mxCell>
        <mxCell id="Slf8df3cpOaLXyys4e7j-5" value="Simulation" style="text;html=1;strokeColor=none;fillColor=none;align=center;verticalAlign=middle;whiteSpace=wrap;rounded=0;fontSize=20;fontFamily=UGent Panno Text;" vertex="1" parent="1">
          <mxGeometry x="550" y="200" width="100" height="40" as="geometry" />
        </mxCell>
        <mxCell id="Slf8df3cpOaLXyys4e7j-7" value="Meta" style="text;html=1;strokeColor=none;fillColor=none;align=center;verticalAlign=middle;whiteSpace=wrap;rounded=0;fontSize=20;fontFamily=UGent Panno Text;" vertex="1" parent="1">
          <mxGeometry x="560" y="245" width="80" height="30" as="geometry" />
        </mxCell>
        <mxCell id="Slf8df3cpOaLXyys4e7j-8" value="Synthesizable" style="text;html=1;strokeColor=none;fillColor=none;align=center;verticalAlign=middle;whiteSpace=wrap;rounded=0;fontSize=20;fontFamily=UGent Panno Text;" vertex="1" parent="1">
          <mxGeometry x="525" y="297.5" width="150" height="35" as="geometry" />
        </mxCell>
      </root>
    </mxGraphModel>
  </diagram>
</mxfile>
